<?xml version="1.0" encoding="utf-8"?>
<!-- Generator: Adobe Illustrator 19.2.1, SVG Export Plug-In . SVG Version: 6.00 Build 0)  -->
<svg version="1.1" id="Camada_1" xmlns="http://www.w3.org/2000/svg" xmlns:xlink="http://www.w3.org/1999/xlink" x="0px" y="0px"
	 viewBox="0 0 41.2 44" style="enable-background:new 0 0 41.2 44;" xml:space="preserve">
<style type="text/css">
	.st0{fill:#E0E0E0;}
	.st1{fill:#FFFFFF;}
	.st2{fill:#9E9E9E;}
	.st3{fill:#BDBDBD;}
	.st4{fill:#F5F5F5;}
</style>
<g>
	<path class="st0" d="M3.2,21l-3,13.6c-0.9,4,0.8,6.6,3.8,7c-0.5-1-0.8-2.2-0.8-3.7V21z"/>
	<line class="st1" x1="15.9" y1="40.4" x2="15.9" y2="40.4"/>
	<polygon class="st1" points="18.8,38.7 18.8,38.7 18.8,38.8 	"/>
	<path class="st2" d="M23.1,9.7l-0.2-1.4l-6.8-6.2c-3-2.8-6.2-2.7-8-0.1c1.1,0,2.3,0.4,3.6,1.1"/>
	<path class="st3" d="M37.7,18.1l-10.9-6.3l-0.3-0.1l-1.4,11.7c0,0,0,0,0,0l-2-13.7L11.7,3.1C10.4,2.3,9.2,2,8.1,1.9
		c-2.9-0.1-4.8,2.1-4.8,6V21v12.9V38c0,1.5,0.3,2.7,0.8,3.7c1.4,2.5,4.3,3.1,7.6,1.2l4.3-2.5l0-19.3c0,0,0,0,0,0l2.8,17.6l1.7-1
		l2.2-1.3l9.5-5.5l1.6-11.1c0,0,0,0,0,0L34,30l2.2-1.3c1.7-1,3.4-1.8,4.4-3.6C41.9,22.8,41,20,37.7,18.1"/>
	<polygon class="st4" points="22.7,36.5 31.9,33.6 32.3,31 	"/>
	<path class="st4" d="M40.5,25.2c-0.6,1-1.5,1.9-2.8,2.6L34,30l0,2.9l2.4-0.8C40.4,30.9,41.9,28.1,40.5,25.2"/>
</g>
</svg>
